<svg width="12" height="12" viewBox="0 0 12 12" fill="none" xmlns="http://www.w3.org/2000/svg">
<path d="M5.375 1.64905H1.58333C1.29602 1.64905 1.02047 1.76319 0.817301 1.96635C0.614137 2.16951 0.5 2.44506 0.5 2.73238V10.3157C0.5 10.603 0.614137 10.8786 0.817301 11.0817C1.02047 11.2849 1.29602 11.399 1.58333 11.399H9.16667C9.45398 11.399 9.72953 11.2849 9.9327 11.0817C10.1359 10.8786 10.25 10.603 10.25 10.3157V6.52405M9.4375 0.836549C9.65299 0.62106 9.94525 0.5 10.25 0.5C10.5547 0.5 10.847 0.62106 11.0625 0.836549C11.278 1.05204 11.399 1.3443 11.399 1.64905C11.399 1.9538 11.278 2.24606 11.0625 2.46155L5.91667 7.60738L3.75 8.14905L4.29167 5.98238L9.4375 0.836549Z" stroke="white" stroke-linecap="round" stroke-linejoin="round"/>
</svg>
