<svg width="12" height="12" viewBox="0 0 12 12" fill="none" xmlns="http://www.w3.org/2000/svg">
<path d="M4.25024 9.49997C1.75024 10.25 1.75024 8.24997 0.750244 7.99997M7.75024 11V9.06497C7.769 8.82655 7.73679 8.58687 7.65575 8.36186C7.57471 8.13686 7.44671 7.93168 7.28024 7.75997C8.85024 7.58497 10.5002 6.98997 10.5002 4.25997C10.5001 3.56188 10.2316 2.89057 9.75024 2.38497C9.97817 1.77422 9.96206 1.09914 9.70524 0.499969C9.70524 0.499969 9.11524 0.324969 7.75024 1.23997C6.60425 0.92938 5.39624 0.92938 4.25024 1.23997C2.88524 0.324969 2.29524 0.499969 2.29524 0.499969C2.03843 1.09914 2.02232 1.77422 2.25024 2.38497C1.76531 2.89432 1.49651 3.5717 1.50024 4.27497C1.50024 6.98497 3.15024 7.57997 4.72024 7.77497C4.55574 7.94495 4.42888 8.14767 4.3479 8.36993C4.26692 8.59219 4.23365 8.829 4.25024 9.06497V11" stroke="#8A8A9A" stroke-width="1.5" stroke-linecap="round" stroke-linejoin="round"/>
</svg>
